<svg width="19" height="18" viewBox="0 0 19 18" fill="none" xmlns="http://www.w3.org/2000/svg">
<path d="M10.7397 16.0252C10.4144 16.3298 9.97966 16.5 9.52721 16.5C9.07475 16.5 8.64 16.3298 8.31473 16.0252C5.33613 13.2195 1.34444 10.0852 3.29107 5.53475C4.34359 3.07437 6.87012 1.5 9.52721 1.5C12.1843 1.5 14.7108 3.07437 15.7633 5.53475C17.7075 10.0795 13.7256 13.2292 10.7397 16.0252Z" stroke="#667085" stroke-width="1.2"/>
<path d="M12.1514 8.25C12.1514 9.69975 10.9761 10.875 9.52637 10.875C8.07662 10.875 6.90137 9.69975 6.90137 8.25C6.90137 6.80025 8.07662 5.625 9.52637 5.625C10.9761 5.625 12.1514 6.80025 12.1514 8.25Z" stroke="#667085" stroke-width="1.2"/>
</svg>
