<svg width="39" height="39" viewBox="0 0 39 39" fill="none" xmlns="http://www.w3.org/2000/svg">
<circle cx="19.5" cy="19.5" r="19.5" fill="#A3DAC2"/>
<mask id="mask0_1817_1093" style="mask-type:alpha" maskUnits="userSpaceOnUse" x="4" y="4" width="31" height="31">
<rect x="4.64258" y="4.64258" width="29.7143" height="29.7143" fill="#D9D9D9"/>
</mask>
<g mask="url(#mask0_1817_1093)">
<path d="M16.2494 28.7857C14.3098 28.7857 12.6641 28.1099 11.3125 26.7583C9.96095 25.4067 9.28516 23.7611 9.28516 21.8214C9.28516 20.8929 9.46055 20.0056 9.81135 19.1595C10.1621 18.3135 10.6677 17.5603 11.328 16.9L19.6852 8.54286C20.3455 7.88254 21.0986 7.37698 21.9447 7.02619C22.7907 6.6754 23.678 6.5 24.6066 6.5C26.5463 6.5 28.1919 7.17579 29.5435 8.52738C30.8951 9.87897 31.5709 11.5246 31.5709 13.4643C31.5709 14.3929 31.3955 15.2802 31.0447 16.1262C30.6939 16.9722 30.1883 17.7254 29.528 18.3857L21.1709 26.7429C20.5106 27.4032 19.7574 27.9087 18.9113 28.2595C18.0653 28.6103 17.178 28.7857 16.2494 28.7857ZM24.4828 19.9333L27.7947 16.6524C28.2074 16.2397 28.5272 15.7548 28.7542 15.1976C28.9812 14.6405 29.0947 14.0627 29.0947 13.4643C29.0947 12.2262 28.6562 11.1687 27.7792 10.2917C26.9022 9.41468 25.8447 8.97619 24.6066 8.97619C24.0082 8.97619 23.4304 9.08968 22.8733 9.31667C22.3161 9.54365 21.8312 9.86349 21.4185 10.2762L18.1375 13.5881L24.4828 19.9333ZM16.2494 26.3095C16.8479 26.3095 17.4256 26.196 17.9828 25.969C18.5399 25.7421 19.0248 25.4222 19.4375 25.0095L22.7185 21.6976L16.3733 15.3524L13.0613 18.6333C12.6486 19.046 12.3288 19.531 12.1018 20.0881C11.8748 20.6452 11.7613 21.223 11.7613 21.8214C11.7613 23.0595 12.1998 24.1171 13.0768 24.994C13.9538 25.871 15.0113 26.3095 16.2494 26.3095Z" fill="#252B61"/>
<rect x="14.1924" y="24.1855" width="11.7081" height="12.2282" transform="rotate(-45.9106 14.1924 24.1855)" fill="#A3DAC2"/>
<path d="M18.571 25.0706L19.8638 23.7659L22.1543 26.0254L22.1543 20.4277L24.0114 20.4277L24.0114 26.0254L26.3019 23.7659L27.5947 25.0706L23.0829 29.5825L18.571 25.0706Z" fill="#252B61"/>
</g>
</svg>
