<svg width="39" height="39" viewBox="0 0 39 39" fill="none" xmlns="http://www.w3.org/2000/svg">
<circle cx="19.5" cy="19.5" r="19.5" fill="#E7C2D4"/>
<mask id="mask0_1817_1103" style="mask-type:alpha" maskUnits="userSpaceOnUse" x="4" y="4" width="31" height="31">
<rect x="4.64258" y="4.64258" width="29.7143" height="29.7143" fill="#252B61"/>
</mask>
<g mask="url(#mask0_1817_1103)">
<path d="M17.0231 31.8191C14.485 31.5303 12.406 30.4418 10.7862 28.5537C9.16637 26.6656 8.35645 24.3906 8.35645 21.7287C8.35645 19.6652 9.17668 17.4211 10.8172 14.9965C12.4576 12.5719 14.939 9.94613 18.2612 7.11914C20.985 9.43025 23.1465 11.6176 24.7457 13.681C26.3449 15.7445 27.3818 17.6842 27.8564 19.5001H25.2874C24.8334 18.2001 24.0184 16.7866 22.8422 15.2596C21.666 13.7326 20.139 12.1128 18.2612 10.4001C15.8057 12.6493 13.9537 14.7231 12.7053 16.6215C11.4568 18.5199 10.8326 20.2223 10.8326 21.7287C10.8326 23.7096 11.4053 25.3965 12.5505 26.7894C13.6957 28.1822 15.1866 29.0231 17.0231 29.312V31.8191Z" fill="#252B61"/>
<path d="M20.738 27.8577L22.0308 26.553L24.3213 28.8125L24.3213 23.2148L26.1784 23.2148L26.1784 28.8125L28.4689 26.553L29.7617 27.8577L25.2499 32.3696L20.738 27.8577Z" fill="#252B61"/>
</g>
</svg>
